<svg height="1182" width="720" xmlns="http://www.w3.org/2000/svg">
<rect height="1182" fill="#555" width="720"></rect>
<text fill="#7f7" font-family="Courier New" font-size="12" xml:space="preserve">
<tspan x="10" y="26">5 megabytes installed</tspan>
<tspan x="10" y="42"></tspan>
<tspan x="10" y="58">node_modules</tspan>
<tspan x="10" y="74">└─┬ grunt-contrib-cssmin@2.0.0 </tspan>
<tspan x="10" y="90">  ├─┬ chalk@1.1.3 </tspan>
<tspan x="10" y="106">  │ ├── ansi-styles@2.2.1 </tspan>
<tspan x="10" y="122">  │ ├── escape-string-regexp@1.0.5 </tspan>
<tspan x="10" y="138">  │ ├─┬ has-ansi@2.0.0 </tspan>
<tspan x="10" y="154">  │ │ └── ansi-regex@2.1.1 </tspan>
<tspan x="10" y="170">  │ ├── strip-ansi@3.0.1 </tspan>
<tspan x="10" y="186">  │ └── supports-color@2.0.0 </tspan>
<tspan x="10" y="202">  ├─┬ clean-css@4.0.11 </tspan>
<tspan x="10" y="218">  │ └── source-map@0.5.6 </tspan>
<tspan x="10" y="234">  └─┬ maxmin@1.1.0 </tspan>
<tspan x="10" y="250">    ├─┬ figures@1.7.0 </tspan>
<tspan x="10" y="266">    │ └── object-assign@4.1.1 </tspan>
<tspan x="10" y="282">    ├─┬ gzip-size@1.0.0 </tspan>
<tspan x="10" y="298">    │ ├─┬ browserify-zlib@0.1.4 </tspan>
<tspan x="10" y="314">    │ │ └── pako@0.2.9 </tspan>
<tspan x="10" y="330">    │ └─┬ concat-stream@1.6.0 </tspan>
<tspan x="10" y="346">    │   ├── inherits@2.0.3 </tspan>
<tspan x="10" y="362">    │   ├─┬ readable-stream@2.2.9 </tspan>
<tspan x="10" y="378">    │   │ ├── buffer-shims@1.0.0 </tspan>
<tspan x="10" y="394">    │   │ ├── core-util-is@1.0.2 </tspan>
<tspan x="10" y="410">    │   │ ├── isarray@1.0.0 </tspan>
<tspan x="10" y="426">    │   │ ├── process-nextick-args@1.0.7 </tspan>
<tspan x="10" y="442">    │   │ ├── string_decoder@1.0.0 </tspan>
<tspan x="10" y="458">    │   │ └── util-deprecate@1.0.2 </tspan>
<tspan x="10" y="474">    │   └── typedarray@0.0.6 </tspan>
<tspan x="10" y="490">    └─┬ pretty-bytes@1.0.4 </tspan>
<tspan x="10" y="506">      ├── get-stdin@4.0.1 </tspan>
<tspan x="10" y="522">      └─┬ meow@3.7.0 </tspan>
<tspan x="10" y="538">        ├─┬ camelcase-keys@2.1.0 </tspan>
<tspan x="10" y="554">        │ └── camelcase@2.1.1 </tspan>
<tspan x="10" y="570">        ├── decamelize@1.2.0 </tspan>
<tspan x="10" y="586">        ├─┬ loud-rejection@1.6.0 </tspan>
<tspan x="10" y="602">        │ ├─┬ currently-unhandled@0.4.1 </tspan>
<tspan x="10" y="618">        │ │ └── array-find-index@1.0.2 </tspan>
<tspan x="10" y="634">        │ └── signal-exit@3.0.2 </tspan>
<tspan x="10" y="650">        ├── map-obj@1.0.1 </tspan>
<tspan x="10" y="666">        ├── minimist@1.2.0 </tspan>
<tspan x="10" y="682">        ├─┬ normalize-package-data@2.3.6 </tspan>
<tspan x="10" y="698">        │ ├── hosted-git-info@2.4.1 </tspan>
<tspan x="10" y="714">        │ ├─┬ is-builtin-module@1.0.0 </tspan>
<tspan x="10" y="730">        │ │ └── builtin-modules@1.1.1 </tspan>
<tspan x="10" y="746">        │ ├── semver@5.3.0 </tspan>
<tspan x="10" y="762">        │ └─┬ validate-npm-package-license@3.0.1 </tspan>
<tspan x="10" y="778">        │   ├─┬ spdx-correct@1.0.2 </tspan>
<tspan x="10" y="794">        │   │ └── spdx-license-ids@1.2.2 </tspan>
<tspan x="10" y="810">        │   └── spdx-expression-parse@1.0.4 </tspan>
<tspan x="10" y="826">        ├─┬ read-pkg-up@1.0.1 </tspan>
<tspan x="10" y="842">        │ ├─┬ find-up@1.1.2 </tspan>
<tspan x="10" y="858">        │ │ ├── path-exists@2.1.0 </tspan>
<tspan x="10" y="874">        │ │ └─┬ pinkie-promise@2.0.1 </tspan>
<tspan x="10" y="890">        │ │   └── pinkie@2.0.4 </tspan>
<tspan x="10" y="906">        │ └─┬ read-pkg@1.1.0 </tspan>
<tspan x="10" y="922">        │   ├─┬ load-json-file@1.1.0 </tspan>
<tspan x="10" y="938">        │   │ ├── graceful-fs@4.1.11 </tspan>
<tspan x="10" y="954">        │   │ ├─┬ parse-json@2.2.0 </tspan>
<tspan x="10" y="970">        │   │ │ └─┬ error-ex@1.3.1 </tspan>
<tspan x="10" y="986">        │   │ │   └── is-arrayish@0.2.1 </tspan>
<tspan x="10" y="1002">        │   │ ├── pify@2.3.0 </tspan>
<tspan x="10" y="1018">        │   │ └─┬ strip-bom@2.0.0 </tspan>
<tspan x="10" y="1034">        │   │   └── is-utf8@0.2.1 </tspan>
<tspan x="10" y="1050">        │   └── path-type@1.1.0 </tspan>
<tspan x="10" y="1066">        ├─┬ redent@1.0.0 </tspan>
<tspan x="10" y="1082">        │ ├─┬ indent-string@2.1.0 </tspan>
<tspan x="10" y="1098">        │ │ └─┬ repeating@2.0.1 </tspan>
<tspan x="10" y="1114">        │ │   └─┬ is-finite@1.0.2 </tspan>
<tspan x="10" y="1130">        │ │     └── number-is-nan@1.0.1 </tspan>
<tspan x="10" y="1146">        │ └── strip-indent@1.0.1 </tspan>
<tspan x="10" y="1162">        └── trim-newlines@1.0.0</tspan>
</text>
</svg>
